<svg width="610px" height="264px" viewBox="0 0 610 264" version="1.1" xmlns="http://www.w3.org/2000/svg" xmlns:xlink="http://www.w3.org/1999/xlink">
    <!-- Generator: Sketch 49.3 (51167) - http://www.bohemiancoding.com/sketch -->
    <desc>Created with Sketch.</desc>
    <defs></defs>
    <g id="Page-1" stroke="none" stroke-width="1" fill="none" fill-rule="evenodd">
        <g id="Camp-Can-Desktop" transform="translate(-414.000000, -72.000000)" fill-rule="nonzero">
            <g id="Camp-Can-Logo" transform="translate(414.000000, 72.000000)">
                <g id="Layer_1">
                    <g id="Group">
                        <g id="Stove" transform="translate(313.450074, 170.872959)" fill="#7C7834">
                            <path d="M0.0419093347,91.592233 L2.61996841,82.8446602 C5.9714452,84.131068 8.80731018,84.6456311 11.9009811,84.131068 C15.7680697,83.3592233 19.1195465,80.7864078 20.1507701,76.6699029 L20.1507701,76.4126214 C21.1819937,73.0679612 20.6663819,71.0097087 16.7992933,65.8640777 C11.6431752,58.9174757 9.83853381,55.8300971 11.6431752,49.3980583 L11.6431752,49.1407767 C13.9634283,40.6504854 21.9554114,33.7038835 29.9473946,31.9029126 C34.0722891,31.131068 36.6503482,31.131068 38.9706013,31.9029126 L36.3925422,40.3932039 C33.5566773,39.1067961 31.49423,38.8495146 28.658365,39.3640777 C25.0490823,40.1359223 21.6976055,42.9660194 20.6663819,46.5679612 L20.6663819,46.8252427 C19.6351583,50.1699029 20.408576,51.4563107 24.2756646,56.6019417 C29.9473946,64.0631068 30.9786182,67.407767 29.1739768,73.8398058 L29.1739768,74.0970874 C26.8537237,82.5873786 18.6039347,89.7912621 10.6119515,91.592233 C6.22925111,92.8786408 2.87777431,92.3640777 0.0419093347,91.592233 Z" id="Shape"></path>
                            <polygon id="Shape" points="53.4077321 34.7330097 44.9001372 36.5339806 46.9625844 28.815534 72.4853693 23.4126214 70.422922 31.131068 62.173133 32.9320388 47.9938081 83.3592233 39.2284072 85.1601942"></polygon>
                            <path d="M70.6807279,52.2281553 L71.4541456,49.6553398 C77.1258756,30.1019417 86.1490823,19.8106796 95.6879009,17.7524272 C105.226719,15.6941748 109.093808,23.1553398 103.679884,42.7087379 L102.906466,45.2815534 C97.2347363,64.8349515 88.2115296,75.1262136 78.672711,77.184466 C69.1338925,79.5 65.0089979,71.7815534 70.6807279,52.2281553 Z M93.8832595,47.3398058 L94.6566773,44.7669903 C99.0393777,29.8446602 97.7503482,24.4417476 93.6254536,25.2135922 C89.5005591,25.9854369 84.8600528,32.6747573 80.4773524,47.8543689 L79.7039347,50.4271845 C75.3212342,65.3495146 76.6102638,70.7524272 80.7351583,69.9805825 C84.8600528,68.9514563 89.5005591,62.2621359 93.8832595,47.3398058 Z" id="Shape"></path>
                            <polygon id="Shape" points="117.601403 13.8932039 126.62461 11.8349515 122.241909 52.2281553 141.577352 8.74757282 150.342753 6.94660194 122.241909 67.6650485 113.218703 69.723301"></polygon>
                            <polygon id="Shape" points="159.108154 4.88834951 182.05288 -2.84217094e-14 179.990433 7.7184466 165.811108 10.8058252 160.912795 28.0436893 173.545285 25.2135922 171.482838 32.9320388 158.850348 35.7621359 153.952036 53.5145631 168.389167 50.4271845 166.326719 58.1456311 142.866382 63.0339806"></polygon>
                        </g>
                        <path d="M469.722363,54.5816968 C475.136287,35.8001434 465.855274,24.4797551 448.840084,28.5962599 C439.559072,30.9117939 430.535865,36.5719881 422.801688,44.2904347 C396.247679,70.01859 382.068354,100.120532 376.138819,133.309852 C376.138819,137.94092 376.138819,142.314707 376.396624,146.688493 C377.685654,163.926357 390.833755,171.644804 407.591139,165.470046 C414.294093,163.154512 420.481435,159.295289 426.153165,154.40694 C435.176371,146.688493 442.910549,137.94092 447.293249,126.620532 C450.644726,117.872959 448.066667,112.727328 440.590295,112.727328 C439.301266,112.727328 438.012236,113.241891 436.723207,113.241891 C435.176371,113.241891 434.402954,114.271017 433.629536,116.071988 C431.051477,120.960338 428.473418,125.848687 425.637553,130.479755 C422.02827,136.397231 417.64557,141.800143 411.97384,145.402085 C406.559916,148.746745 401.403797,148.232182 399.599156,143.858396 C398.567932,141.542862 398.310127,138.970046 398.052321,136.139949 C397.794515,127.392376 400.114768,118.130241 403.208439,108.868105 C409.653586,90.6011143 418.161181,73.3632502 431.309283,58.1836386 C435.434177,53.2952891 440.332489,48.6642211 446.004219,47.1205318 C449.871308,46.0914056 451.675949,47.6350949 451.160338,52.0088813 C450.129114,60.4991726 445.488608,67.703056 439.301266,73.8778133 C436.465401,76.965192 436.465401,78.7661628 437.238819,81.0816968 C437.75443,82.3681046 438.270042,83.6545124 439.04346,84.426357 C442.394937,88.5428619 448.840084,86.9991726 455.027426,81.0816968 C462.503797,73.1059687 466.886498,64.1011143 469.722363,54.5816968 Z M64.9670886,196.086551 C63.6780591,196.086551 62.1312236,196.343833 60.8421941,196.601114 C59.2953586,196.601114 58.5219409,197.372959 58.0063291,199.17393 C56.4594937,202.261308 54.9126582,205.348687 53.1080169,208.436066 C48.9831224,215.897231 44.0848101,222.843833 37.3818565,227.732182 C30.1632911,232.877813 24.4915612,231.334124 22.9447257,224.130241 C21.3978903,217.183639 22.9447257,209.465192 25.007173,201.746745 C29.6476793,183.994318 37.6396624,167.013736 48.4675105,151.062279 C53.3658228,143.858396 58.7797468,137.169075 65.7405063,132.795289 C68.8341772,130.737037 72.185654,128.936066 74.7637131,130.994318 C77.0839662,133.052571 76.0527426,136.911794 74.7637131,140.513736 C72.185654,147.460338 68.0607595,153.377813 62.9046414,158.780726 C62.3890295,159.295289 61.6156118,160.581697 61.3578059,161.09626 C60.8421941,168.300143 66.2561181,172.416648 72.7012658,169.32927 C75.021519,168.300143 77.3417722,166.499173 79.4042194,164.44092 C88.943038,154.664221 93.8413502,143.086551 95.3881857,130.994318 C96.4194093,121.217619 92.8101266,114.78558 85.3337553,112.470046 C78.3729958,110.154512 70.6388186,112.470046 62.6468354,116.843833 C50.5299578,123.533153 40.2177215,133.567134 31.4523207,145.659367 C14.6949367,168.300143 4.12489451,192.227328 0.515611814,217.955483 C0.515611814,221.042862 0.257805907,224.387522 0.515611814,227.732182 C0.515611814,230.047716 1.03122363,232.105969 1.28902954,234.421503 C4.38270042,248.571988 15.4683544,254.746745 29.9054852,250.115677 C38.6708861,247.28558 46.9206751,241.882668 54.3970464,234.678784 C61.6156118,227.732182 67.8029536,220.013736 71.4122363,210.7516 C75.021519,201.489464 72.7012658,196.343833 64.9670886,196.086551 Z M605.843882,107.838978 C600.429958,114.528299 594.500422,120.445774 587.024051,124.047716 C576.711814,128.936066 570.008861,124.562279 570.782278,113.499173 C571.29789,104.494318 575.164979,95.7467454 578.516456,86.741891 C580.836709,80.5671337 583.156962,74.3923764 585.219409,68.2176192 C585.735021,66.6739298 585.477215,64.1011143 584.703797,63.5865512 C583.672574,63.0719881 581.352321,64.1011143 580.063291,65.1302405 C575.164979,68.9894638 571.813502,74.3923764 568.462025,79.7952891 C558.149789,96.0040269 551.962447,112.984609 548.095359,130.222474 C547.321941,133.309852 546.032911,134.853541 543.454852,135.368105 C540.103376,135.625386 536.494093,136.654512 533.142616,136.397231 C528.244304,135.882668 526.439662,131.766163 527.470886,125.334124 C527.728692,124.047716 527.986498,122.761308 528.244304,121.217619 C524.892827,125.591406 521.799156,129.70791 518.447679,133.309852 C514.322785,137.94092 509.424473,141.800143 504.010549,143.343833 C496.791983,145.144804 491.635865,142.057425 490.862447,134.59626 C490.862447,133.824415 490.604641,133.052571 490.604641,132.538008 C486.995359,136.397231 483.901688,140.513736 480.292405,144.115677 C475.394093,149.004027 469.722363,152.348687 464.050633,151.834124 C457.089873,151.319561 454.76962,145.659367 454.254008,138.970046 C452.707173,124.047716 458.636709,108.868105 466.886498,93.9457745 C472.300422,84.426357 478.74557,76.1933473 487.51097,70.01859 C495.760759,64.3583959 504.010549,64.1011143 507.619831,69.5040269 C508.651055,71.0477162 509.166667,72.8486871 509.940084,74.3923764 C511.744726,72.0768425 513.291561,69.5040269 515.354008,67.1884929 C521.025738,60.7564541 529.533333,60.241891 532.627004,65.6448036 C532.88481,66.4166483 532.627004,67.9603376 532.369198,68.9894638 C526.955274,81.3389784 521.54135,93.6884929 516.385232,106.038008 C514.838397,109.382668 514.064979,112.984609 513.033755,116.586551 C512.775949,117.615677 512.518143,118.902085 512.518143,119.931211 C512.775949,122.761308 514.322785,123.275872 516.900844,121.474901 C518.447679,120.188493 520.252321,118.387522 521.54135,116.843833 C530.822363,104.237037 538.298734,90.6011143 544.22827,76.4506289 C547.321941,69.2467454 548.61097,61.7855803 550.931224,54.0671337 C556.602954,52.5234444 562.532489,51.4943182 567.430802,53.5525706 C570.266667,54.8389784 571.29789,57.926357 570.266667,61.7855803 C569.751055,64.1011143 568.977637,66.1593667 567.946414,69.2467454 C570.008861,66.6739298 571.29789,64.6156774 572.844726,62.8147065 C578.774262,55.3535415 584.961603,48.4069395 593.211392,44.5477162 C599.140928,41.7176192 604.554852,40.6884929 608.164135,45.5768425 C610.742194,48.9215026 610.226582,54.0671337 608.679747,58.9554832 C606.101688,66.9312114 602.750211,74.9069395 599.914346,83.1399492 C598.109705,88.0282988 596.047257,92.9166483 594.500422,98.0622793 C593.727004,100.377813 592.695781,103.465192 594.758228,104.494318 C596.820675,105.523444 599.65654,103.722474 601.461181,101.40694 C605.586076,95.4894638 612.28903,99.3486871 605.843882,107.838978 Z M499.112236,82.3681046 C496.276371,82.110823 493.956118,84.426357 491.893671,86.9991726 C490.862447,88.2855803 489.831224,89.5719881 489.057806,90.8583959 C484.932911,97.2904347 481.581435,103.979755 479.518987,110.926357 C478.229958,115.557425 477.198734,120.188493 476.425316,124.819561 C475.909705,127.392376 476.167511,130.222474 478.74557,130.479755 C481.323629,130.994318 483.643882,128.164221 485.448523,125.848687 C493.956118,114.271017 498.85443,101.921503 501.174684,90.8583959 C501.690295,84.9409201 500.916878,82.6253861 499.112236,82.3681046 Z M237.954852,149.51859 C227.38481,165.470046 219.650633,181.936066 216.04135,199.688493 C214.494515,206.635095 214.494515,206.635095 208.307173,207.921503 C206.502532,208.178784 204.69789,208.436066 202.893249,208.178784 C196.705907,207.664221 193.870042,203.290435 196.190295,195.571988 C199.283966,185.280726 203.151055,174.732182 206.502532,164.44092 C208.049367,159.809852 209.596203,155.178784 210.627426,150.804998 C211.65865,146.688493 209.596203,145.659367 205.98692,148.232182 C201.604219,151.062279 198.510549,155.693347 195.416878,160.067134 C185.104641,175.246745 178.401688,190.94092 174.018987,207.664221 C173.24557,210.494318 172.472152,213.067134 171.95654,215.897231 C171.698734,217.44092 170.925316,218.470046 169.378481,218.727328 C165.769198,219.241891 162.159916,220.528299 158.808439,220.271017 C152.621097,220.271017 150.300844,215.897231 151.847679,208.693347 C152.105485,207.40694 152.363291,206.377813 152.621097,205.605969 C147.980591,210.7516 143.340084,216.154512 138.441772,221.300143 C134.574684,225.416648 129.934177,227.474901 125.035865,227.732182 C119.621941,228.246745 115.754852,224.387522 114.981435,218.470046 C114.981435,217.698202 114.723629,216.926357 114.723629,216.411794 C111.114346,220.271017 108.020675,224.387522 104.411392,227.989464 C99.5130802,232.877813 93.8413502,236.222474 88.1696203,235.70791 C81.2088608,235.193347 78.8886076,229.533153 78.3729958,222.843833 C76.8261603,207.921503 82.7556962,192.741891 91.0054852,177.819561 C96.4194093,168.300143 102.864557,160.067134 111.629958,153.892376 C119.879747,148.232182 128.129536,147.974901 131.738819,153.377813 C132.770042,154.921503 133.285654,156.722474 134.059072,158.266163 C135.863713,155.950629 137.410549,153.377813 139.472996,151.062279 C145.144726,144.630241 153.652321,144.115677 156.745992,149.51859 C157.003797,150.290435 156.745992,151.834124 156.488186,152.86325 C151.074262,165.212765 145.660338,177.562279 140.504219,189.911794 C138.957384,193.256454 138.183966,196.858396 137.152743,200.460338 C136.637131,201.489464 136.637131,202.775872 136.637131,203.804998 C136.637131,206.892376 138.441772,207.664221 141.277637,205.348687 C143.59789,203.290435 145.918143,200.974901 147.464979,198.144804 C154.167932,186.567134 161.386498,174.989464 167.316034,163.154512 C170.667511,156.722474 171.698734,149.51859 173.761181,142.571988 C174.276793,141.28558 174.534599,139.741891 174.792405,138.198202 C180.206329,136.654512 185.362447,135.882668 190.002954,136.911794 C194.385654,137.94092 195.416878,141.542862 193.612236,147.974901 C193.096624,149.51859 192.838819,150.804998 192.581013,152.605969 C193.870042,151.062279 194.901266,149.261308 196.190295,147.717619 C201.862025,139.999173 208.049367,132.795289 216.299156,128.678784 C223.259916,125.076842 229.447257,125.848687 232.025316,130.737037 C234.087764,135.110823 233.314346,140.256454 232.283122,145.659367 C232.283122,146.17393 232.025316,146.688493 232.025316,147.203056 L232.025316,147.460338 C235.376793,142.82927 238.72827,138.455483 242.337553,134.081697 C247.493671,127.90694 252.907595,122.246745 259.868354,119.416648 C262.962025,118.130241 266.055696,117.358396 268.891561,117.358396 C274.563291,117.358396 277.656962,122.246745 276.110127,129.70791 C274.563291,136.139949 272.243038,142.82927 269.922785,149.51859 C267.602532,155.950629 264.766667,162.382668 262.188608,168.814707 C261.41519,171.130241 260.899578,173.188493 260.383966,175.504027 C259.610549,179.36325 261.930802,180.649658 265.024473,178.334124 C267.602532,176.533153 269.922785,174.217619 271.985232,171.644804 C281.266245,159.809852 288.48481,146.945774 294.672152,133.567134 C297.508017,127.135095 298.539241,120.445774 300.343882,113.756454 C300.601688,112.984609 300.601688,112.212765 300.859494,111.183639 C306.015612,109.639949 311.17173,108.610823 315.296624,110.926357 C318.905907,112.727328 318.390295,117.101114 317.616878,121.474901 C317.616878,121.989464 317.359072,122.504027 317.101266,123.275872 C320.710549,119.159367 323.804219,114.78558 327.413502,110.926357 C331.538397,106.295289 336.436709,102.436066 341.592827,100.635095 C350.100422,97.5477162 356.029958,101.149658 357.318987,109.897231 C358.608017,119.416648 355.772152,129.450629 351.647257,139.741891 C350.100422,143.343833 334.374262,178.334124 314.007595,186.052571 C307.820253,188.110823 301.890717,188.882668 298.281435,179.620532 C295.44557,187.853541 292.867511,195.571988 290.547257,203.290435 C288.227004,211.008881 285.648945,218.727328 283.586498,226.445774 C281.524051,234.164221 279.977215,242.139949 277.914768,250.115677 C274.305485,250.887522 270.180591,252.431211 266.571308,252.431211 C259.868354,252.688493 257.032489,247.028299 259.610549,238.280726 C263.477637,225.416648 267.860338,212.295289 272.243038,199.431211 C275.336709,190.426357 278.688186,181.164221 282.039662,172.159367 C282.297468,171.644804 282.297468,171.130241 282.297468,170.358396 C280.235021,173.188493 278.43038,176.01859 276.110127,178.848687 C270.954008,185.795289 265.282278,192.227328 258.321519,196.858396 C254.196624,199.688493 250.07173,201.232182 245.946835,201.232182 C239.243882,201.232182 236.150211,195.057425 237.439241,187.081697 C239.243882,175.761308 244.142194,164.44092 248.524895,153.377813 C249.813924,149.775872 251.102954,146.17393 252.134177,142.571988 C253.165401,138.198202 250.845148,136.911794 247.493671,139.999173 C243.884388,142.057425 240.532911,145.659367 237.954852,149.51859 Z M306.015612,165.212765 C306.273418,169.843833 309.109283,170.872959 313.234177,167.528299 C315.296624,165.984609 317.101266,163.926357 318.648101,161.610823 C326.124473,150.804998 331.022785,139.227328 333.343038,127.135095 C333.343038,126.105969 333.600844,125.076842 333.600844,124.047716 C333.600844,119.416648 331.022785,118.130241 326.89789,121.474901 C324.577637,123.275872 322.51519,125.591406 320.710549,128.164221 C316.070042,134.59626 312.460759,141.542862 309.8827,148.746745 C307.562447,154.40694 305.757806,159.809852 306.015612,165.212765 Z M123.746835,166.241891 C121.684388,165.470046 119.621941,167.271017 117.8173,169.071988 C117.301688,169.586551 116.52827,170.358396 116.012658,170.872959 C110.85654,177.047716 107.505063,184.2516 104.669198,191.455483 C102.348945,197.372959 100.544304,203.033153 100.544304,208.950629 C100.544304,211.523444 100.544304,214.09626 102.864557,214.610823 C105.442616,215.125386 107.762869,212.552571 109.567511,209.979755 C118.075105,198.402085 122.973418,186.052571 125.551477,173.188493 C125.551477,172.67393 125.551477,172.159367 125.809283,171.644804 C125.809283,169.32927 125.809283,167.013736 123.746835,166.241891 Z" id="Camp_Can" fill="#DC6F27"></path>
                        <g id="Wild_Woods" transform="translate(85.075949, 0.000000)">
                            <path d="M256.774684,73.1059687 C261.930802,75.1642211 269.664979,75.9360658 269.664979,75.9360658 C265.540084,77.2224735 255.227848,75.9360658 253.681013,74.649658 C252.134177,73.1059687 252.907595,71.5622793 256.774684,73.1059687 Z M293.383122,28.8535415 C294.414346,29.8826677 294.929958,31.426357 294.414346,33.4846094 C291.320675,45.3195609 276.625738,58.6982017 276.625738,58.6982017 C277.914768,63.0719881 287.195781,72.5914056 290.289451,75.4215026 C293.383122,78.2515997 290.547257,79.7952891 286.422363,82.110823 C282.297468,84.426357 270.954008,87.5137357 259.352743,85.4554832 C243.884388,82.6253861 235.118987,76.7079104 233.05654,74.3923764 C230.994093,72.0768425 233.572152,64.1011143 233.572152,64.1011143 C233.572152,64.1011143 230.220675,61.7855803 218.877215,63.5865512 C207.533755,65.3875221 190.518565,70.5331531 170.925316,84.1690755 C154.94135,95.2321823 141.277637,104.7516 125.551477,110.926357 L125.551477,110.926357 C124.262447,111.44092 123.231224,111.698202 121.942194,112.212765 C121.942194,112.212765 121.942194,112.212765 121.942194,112.470046 C120.653165,112.984609 119.364135,113.241891 118.075105,113.756454 L118.075105,113.499173 C113.176793,114.78558 107.762869,116.071988 102.348945,116.843833 C71.9278481,121.217619 48.7253165,112.727328 45.3738397,111.183639 C42.0223629,109.897231 41.5067511,107.838978 40.7333333,105.266163 C39.9599156,102.693347 39.1864979,87.5137357 39.1864979,87.5137357 C28.6164557,81.3389784 19.335443,86.741891 15.9839662,88.2855803 C12.6324895,89.5719881 8.24978903,92.1448036 9.02320675,85.7127648 C9.79662447,79.2807259 18.5620253,61.0137357 18.5620253,61.0137357 C13.921519,53.2952891 3.86708861,47.6350949 2.06244726,46.8632502 C0.257805907,46.0914056 -1.03122363,44.5477162 3.09367089,41.7176192 C30.1632911,24.2224735 51.0455696,35.8001434 53.6236287,36.8292696 C55.6860759,37.6011143 57.7485232,38.6302405 58.7797468,40.4312114 L60.3265823,51.2370366 L60.3265823,51.2370366 C60.5843882,53.2952891 60.8421941,54.8389784 60.8421941,54.8389784 C60.8421941,54.8389784 60.5843882,55.0962599 62.6468354,55.0962599 C75.2793249,56.8972308 87.3962025,55.3535415 99.2552743,51.7515997 C114.465823,47.6350949 129.676371,38.8875221 145.660338,29.6253861 L155.456962,23.965192 C167.831646,17.01859 180.721941,10.3292696 194.64346,5.44092012 C203.151055,2.35354148 212.174262,1.06713372 220.424051,0.552570609 C240.0173,0.295289056 254.712236,4.15451236 257.032489,5.18363857 C262.188608,7.241891 265.79789,11.3583959 265.540084,14.703056 C265.540084,16.2467454 265.024473,20.8778133 264.508861,24.2224735 C264.508861,24.2224735 263.735443,30.9117939 269.664979,32.7127648 C278.43038,35.5428619 284.617722,31.6836386 287.453586,29.8826677 C290.547257,26.7952891 293.383122,28.8535415 293.383122,28.8535415 Z M20.3666667,43.0040269 C22.4291139,41.7176192 26.2962025,40.4312114 29.9054852,40.1739298 C33.5147679,39.9166483 37.6396624,39.9166483 41.764557,39.6593667 C45.8894515,39.4020852 43.5691983,36.3147065 28.1008439,37.0865512 C20.3666667,37.3438327 13.1481013,40.9457745 10.0544304,42.4894638 C6.96075949,44.0331531 8.50759494,44.5477162 11.085654,46.3486871 C13.6637131,48.149658 21.3978903,55.8681046 23.9759494,58.4409201 C26.5540084,61.0137357 19.0776371,73.1059687 16.4995781,77.7370366 C13.921519,82.3681046 19.335443,80.3098522 22.171308,79.7952891 C25.007173,79.2807259 29.9054852,79.2807259 34.5459916,80.0525706 C38.928692,80.8244153 37.8974684,78.2515997 37.8974684,77.2224735 C37.8974684,76.1933473 35.8350211,57.6690755 35.8350211,54.8389784 C35.5772152,52.0088813 36.8662447,53.2952891 33.5147679,52.7807259 C30.1632911,52.2661628 32.4835443,50.9797551 34.8037975,50.2079104 C37.3818565,49.4360658 34.0303797,48.149658 30.421097,47.8923764 C26.8118143,47.6350949 27.3274262,46.8632502 32.7413502,45.834124 C38.1552743,44.8049978 38.6708861,44.5477162 37.6396624,43.51859 C36.8662447,42.4894638 32.2257384,42.2321823 27.5852321,42.7467454 C22.4291139,43.51859 18.5620253,44.2904347 20.3666667,43.0040269 Z M253.681013,61.3446602 C253.681013,61.3446602 255.74346,61.6019417 253.165401,59.5436893 C250.845148,57.7427184 243.11097,56.4563107 246.204641,55.684466 C246.204641,55.684466 254.712236,56.4563107 254.712236,55.1699029 C254.712236,53.8834951 249.813924,51.8252427 248.524895,50.538835 C247.235865,49.5097087 255.227848,50.0242718 256.516878,50.538835 C256.516878,50.538835 253.681013,46.1650485 251.360759,45.1359223 C251.360759,45.1359223 255.227848,44.3640777 256.774684,45.1359223 C256.774684,45.1359223 256.774684,45.1359223 256.774684,44.8786408 C256.259072,44.1067961 254.196624,41.276699 252.134177,39.9902913 C252.134177,39.9902913 254.970042,38.7038835 256.774684,39.4757282 C256.774684,39.4757282 253.423207,35.1019417 252.649789,34.3300971 C251.618565,33.5582524 256.259072,34.0728155 258.063713,34.3300971 L257.290295,33.3009709 C257.290295,33.3009709 257.290295,33.0436893 257.032489,33.0436893 L257.032489,33.0436893 C257.032489,33.0436893 257.032489,32.7864078 256.774684,32.7864078 C256.774684,32.7864078 256.774684,32.7864078 256.774684,32.5291262 L256.774684,32.5291262 C256.774684,32.5291262 256.516878,32.2718447 256.516878,32.0145631 L256.516878,32.0145631 L256.516878,32.0145631 C256.001266,31.2427184 255.227848,30.4708738 254.45443,29.6990291 L254.45443,29.6990291 L254.45443,29.6990291 C254.196624,29.4417476 253.681013,29.184466 253.423207,28.9271845 C253.423207,28.9271845 253.423207,28.9271845 253.165401,28.9271845 C252.907595,28.6699029 252.391983,28.4126214 251.876371,28.1553398 C251.876371,28.1553398 255.485654,27.1262136 257.548101,27.8980583 C257.548101,27.8980583 257.548101,27.8980583 257.548101,27.6407767 C257.548101,27.6407767 257.290295,27.3834951 257.290295,27.1262136 C257.290295,27.1262136 257.290295,27.1262136 257.032489,26.868932 C257.032489,26.6116505 256.774684,26.6116505 256.774684,26.3543689 C256.774684,26.3543689 256.774684,26.3543689 256.516878,26.0970874 C256.259072,25.8398058 256.001266,25.5825243 256.001266,25.3252427 L256.001266,25.3252427 C255.74346,25.0679612 255.485654,24.8106796 255.227848,24.5533981 L254.970042,24.2961165 C254.712236,24.038835 254.712236,24.038835 254.45443,23.7815534 L254.196624,23.5242718 C253.938819,23.2669903 253.938819,23.2669903 253.681013,23.0097087 C253.423207,22.7524272 253.165401,22.4951456 253.165401,22.2378641 C252.907595,21.9805825 252.649789,21.723301 252.649789,21.723301 C251.360759,20.4368932 255.74346,20.1796117 258.321519,20.9514563 L258.321519,20.9514563 C258.063713,20.4368932 253.938819,15.2912621 252.391983,14.2621359 C250.587342,13.2330097 258.063713,14.2621359 259.868354,15.0339806 C258.837131,11.6893204 252.907595,6.28640777 226.095781,5 L222.486498,5 L222.486498,5 L221.970886,5 L221.970886,5 L218.619409,5 L218.619409,5 L218.103797,5 L218.103797,5 C217.072574,5 215.783544,5 214.752321,5.25728155 L214.752321,5.25728155 L214.494515,5.25728155 L214.494515,5.25728155 C213.463291,5.25728155 212.174262,5.51456311 211.143038,5.51456311 L211.143038,5.51456311 L211.143038,5.51456311 C209.854008,5.77184466 208.822785,5.77184466 207.533755,6.02912621 C207.533755,6.02912621 207.533755,6.02912621 207.275949,6.02912621 L207.275949,6.02912621 C206.244726,6.28640777 205.213502,6.28640777 203.924473,6.54368932 L203.924473,6.54368932 L203.408861,6.54368932 L203.408861,6.54368932 C202.377637,6.80097087 201.088608,7.05825243 200.057384,7.31553398 L200.057384,7.31553398 L200.057384,7.31553398 C198.768354,7.57281553 197.737131,7.83009709 196.448101,8.34466019 L196.448101,8.34466019 L196.448101,8.34466019 C190.518565,10.1456311 184.331224,12.7184466 177.62827,16.0631068 C177.62827,16.0631068 177.62827,16.0631068 177.370464,16.0631068 L177.370464,16.0631068 C170.667511,19.407767 163.191139,23.5242718 154.683544,28.4126214 L154.683544,28.4126214 C153.910127,28.9271845 153.136709,29.4417476 152.363291,29.6990291 C120.91097,50.538835 88.6852321,69.3203883 40.7333333,57.7427184 C40.7333333,57.7427184 39.7021097,59.5436893 48.7253165,62.3737864 C51.0455696,63.1456311 50.2721519,65.461165 40.4755274,63.9174757 C39.9599156,63.9174757 43.5691983,66.7475728 45.8894515,67.776699 C48.9831224,68.8058252 41.2489451,68.8058252 39.9599156,68.5485437 C39.9599156,68.5485437 43.0535865,72.1504854 45.3738397,72.6650485 C45.3738397,72.6650485 42.2801688,74.4660194 40.7333333,74.2087379 C40.7333333,74.2087379 44.8582278,78.0679612 47.178481,78.8398058 C47.178481,78.8398058 43.3113924,79.868932 41.2489451,79.3543689 C41.2489451,79.3543689 41.2489451,79.3543689 41.2489451,79.6116505 C41.764557,80.3834951 44.0848101,82.6990291 46.9206751,83.7281553 C46.9206751,83.7281553 43.8270042,84.7572816 42.2801688,84.7572816 C42.2801688,84.7572816 50.014346,88.8737864 48.4675105,89.3883495 C46.9206751,89.6456311 44.6004219,90.1601942 42.5379747,89.9029126 C42.5379747,89.9029126 46.4050633,93.2475728 48.9831224,94.0194175 C48.9831224,94.0194175 47.4362869,95.5631068 43.8270042,96.3349515 C43.8270042,96.3349515 47.178481,98.6504854 49.4987342,99.9368932 C51.3033755,100.966019 43.3113924,101.737864 44.0848101,102.252427 C45.6316456,103.538835 47.6940928,104.567961 47.6940928,104.567961 C49.4987342,105.597087 49.7565401,106.11165 48.2097046,106.11165 C46.6628692,106.11165 46.4050633,107.140777 53.8814346,109.713592 C61.3578059,112.286408 82.2400844,118.461165 112.403376,109.970874 C142.308861,101.480583 161.128692,83.4708738 183.3,71.3786408 C205.98692,58.7718447 229.189451,55.684466 253.681013,61.3446602 Z M281.008439,37.3438327 C269.149367,39.1448036 261.672996,36.057425 261.672996,36.057425 C261.672996,36.057425 259.610549,52.2661628 258.837131,61.5282988 C258.063713,70.7904347 252.391983,70.01859 247.493671,70.5331531 C241.821941,71.0477162 239.759494,72.334124 247.751477,76.1933473 C262.188608,82.8826677 279.461603,78.7661628 282.039662,77.7370366 C284.617722,76.7079104 284.617722,75.4215026 282.81308,74.1350949 C281.008439,72.8486871 274.563291,66.6739298 273.274262,64.1011143 C271.727426,61.5282988 268.891561,58.6982017 271.985232,54.8389784 C275.078903,51.2370366 281.781857,43.7758716 283.070886,41.9749007 C284.617722,38.8875221 284.359916,36.8292696 281.008439,37.3438327 Z" id="Shape" fill="#7C7834"></path>
                            <g id="Group" transform="translate(54.139241, 18.009709)" fill="#DC6F27">
                                <path d="M60.8421941,68.4749007 C60.8421941,68.4749007 60.0687764,71.0477162 58.5219409,72.8486871 C57.4907173,73.8778133 56.9751055,73.8778133 55.6860759,74.3923764 C54.1392405,74.649658 53.3658228,73.6205318 53.1080169,72.0768425 C52.5924051,70.7904347 51.3033755,59.9846094 51.3033755,57.926357 C51.3033755,55.8681046 53.3658228,54.0671337 53.3658228,54.0671337 L53.1080169,52.5234444 C53.1080169,52.5234444 49.7565401,53.2952891 48.4675105,53.5525706 C46.9206751,53.8098522 43.5691983,54.8389784 43.5691983,54.8389784 L43.8270042,55.8681046 C43.8270042,55.8681046 45.8894515,56.8972308 46.1472574,58.6982017 C47.6940928,64.3583959 48.2097046,73.6205318 48.2097046,75.4215026 C48.2097046,76.965192 46.4050633,78.7661628 46.4050633,78.7661628 L46.6628692,80.0525706 C46.6628692,80.0525706 51.0455696,79.2807259 52.5924051,79.0234444 C58.264135,77.7370366 60.3265823,77.2224735 62.6468354,76.1933473 C62.6468354,73.6205318 62.3890295,68.7321823 62.3890295,68.7321823 L60.8421941,68.4749007 Z" id="Shape"></path>
                                <path d="M71.9278481,45.5768425 C69.8654008,45.0622793 68.0607595,45.5768425 64.7092827,47.3778133 C62.3890295,48.6642211 57.4907173,50.465192 57.4907173,50.465192 L58.0063291,51.4943182 C58.0063291,51.4943182 59.8109705,51.4943182 61.1,53.0380075 C61.6156118,53.8098522 67.5451477,67.4457745 67.8029536,69.5040269 C68.0607595,71.8195609 67.0295359,72.5914056 67.0295359,72.5914056 L67.5451477,73.8778133 C67.5451477,73.8778133 70.3810127,72.5914056 71.6700422,71.8195609 C72.7012658,71.3049978 74.2481013,70.5331531 75.5371308,70.01859 C77.5995781,68.9894638 79.9198312,67.4457745 80.9510549,65.1302405 C82.7556962,61.7855803 83.0135021,56.3826677 79.9198312,51.4943182 C77.857384,48.4069395 75.2793249,46.3486871 71.9278481,45.5768425 Z M76.5683544,64.1011143 C76.0527426,65.9020852 74.7637131,66.6739298 73.7324895,67.4457745 C72.9590717,67.703056 72.4434599,67.703056 72.185654,66.9312114 L65.4827004,51.2370366 C65.2248945,50.465192 65.7405063,49.9506289 66.2561181,49.6933473 C67.2873418,49.1787842 68.3185654,49.1787842 69.8654008,49.9506289 C71.9278481,50.9797551 73.2168776,52.7807259 74.2481013,54.5816968 C76.8261603,58.1836386 77.3417722,61.7855803 76.5683544,64.1011143 Z" id="Shape"></path>
                                <path d="M31.7101266,50.7224735 C31.7101266,50.7224735 29.3898734,51.4943182 27.0696203,52.0088813 C25.2649789,52.5234444 22.171308,52.7807259 22.171308,52.7807259 L22.171308,53.8098522 C22.171308,53.8098522 23.9759494,54.8389784 23.7181435,57.6690755 C23.7181435,60.4991726 21.1400844,68.4749007 21.9135021,74.9069395 L21.6556962,74.9069395 C17.7886076,67.9603376 17.5308017,60.4991726 18.0464135,56.6399492 C17.0151899,56.6399492 14.1793249,56.3826677 13.6637131,56.3826677 C13.6637131,58.9554832 10.0544304,69.7613085 9.02320675,73.3632502 L8.76540084,73.3632502 C8.76540084,70.01859 8.24978903,67.1884929 8.24978903,63.8438327 C7.99198312,59.4700463 7.73417722,56.3826677 8.50759494,54.8389784 C9.02320675,53.2952891 10.5700422,52.7807259 10.5700422,52.7807259 L10.8278481,51.7515997 C10.8278481,51.7515997 8.50759494,51.7515997 5.41392405,51.2370366 C3.09367089,50.7224735 0.773417722,49.9506289 0.773417722,49.9506289 L0.515611814,50.7224735 C0.515611814,50.7224735 2.32025316,52.2661628 2.57805907,54.5816968 C3.09367089,58.4409201 3.6092827,62.8147065 3.86708861,66.4166483 C4.38270042,71.3049978 4.38270042,74.649658 4.38270042,80.0525706 C5.92953586,80.8244153 9.28101266,81.3389784 10.0544304,81.0816968 C11.6012658,76.4506289 13.4059072,71.0477162 15.2105485,64.872959 L15.4683544,64.872959 C16.757384,70.2758716 18.3042194,77.2224735 21.6556962,82.8826677 C23.9759494,83.1399492 28.1008439,82.110823 28.1008439,82.110823 C22.9447257,70.01859 28.3586498,58.1836386 28.8742616,56.3826677 C29.9054852,53.2952891 32.7413502,51.2370366 32.7413502,51.2370366 L31.7101266,50.7224735 Z" id="Shape"></path>
                                <path d="M38.928692,76.4506289 C38.6708861,74.9069395 37.8974684,64.1011143 38.4130802,59.4700463 C38.6708861,57.6690755 40.4755274,56.1253861 40.4755274,56.1253861 L40.4755274,55.0962599 C40.4755274,55.0962599 37.8974684,55.610823 36.3506329,55.610823 C34.8037975,55.8681046 31.1945148,56.3826677 31.1945148,56.3826677 L31.1945148,57.4117939 C31.1945148,57.4117939 32.9991561,58.1836386 33.256962,59.4700463 C33.5147679,60.7564541 34.0303797,75.6787842 33.5147679,77.4797551 C32.9991561,79.2807259 31.4523207,79.7952891 31.4523207,79.7952891 L31.4523207,81.0816968 C31.4523207,81.0816968 34.8037975,81.0816968 36.3506329,80.8244153 C38.1552743,80.5671337 41.764557,80.0525706 41.764557,80.0525706 L41.764557,79.0234444 C41.5067511,79.0234444 39.1864979,78.5088813 38.928692,76.4506289 Z" id="Shape"></path>
                                <path d="M110.598734,18.0477162 L109.309705,17.01859 C109.309705,17.01859 108.536287,18.3049978 106.989451,19.5914056 C104.669198,21.3923764 102.348945,22.1642211 102.348945,22.1642211 L102.606751,23.4506289 C102.606751,23.4506289 104.153586,23.4506289 104.927004,26.0234444 C105.18481,26.7952891 106.731646,33.9991726 107.247257,36.8292696 C107.762869,38.8875221 108.536287,41.9749007 109.567511,44.2904347 L109.567511,44.5477162 C105.700422,40.4312114 102.864557,38.1156774 101.317722,31.6836386 C100.544304,32.1982017 97.9662447,33.4846094 97.4506329,33.9991726 C98.7396624,38.6302405 97.7084388,46.6059687 97.9662447,50.465192 L97.7084388,50.465192 C96.6772152,47.3778133 94.356962,43.7758716 93.0679325,40.9457745 C90.2320675,34.7710172 92.5523207,32.4554832 92.5523207,32.4554832 L91.778903,30.9117939 C91.778903,30.9117939 88.6852321,32.9700463 86.6227848,33.741891 C85.3337553,34.2564541 81.2088608,36.3147065 81.2088608,36.3147065 L81.4666667,37.6011143 C81.4666667,37.6011143 84.3025316,37.6011143 86.107173,39.6593667 C88.4274262,42.2321823 93.5835443,52.2661628 96.1616034,61.0137357 C97.4506329,60.4991726 100.028692,59.4700463 101.317722,58.1836386 C101.317722,53.0380075 101.059916,46.8632502 100.544304,40.1739298 L100.80211,40.1739298 C103.122363,45.0622793 109.051899,50.2079104 111.887764,52.2661628 C113.950211,51.2370366 115.754852,49.1787842 116.786076,47.8923764 C111.887764,43.51859 110.083122,32.7127648 109.051899,24.2224735 C108.536287,20.8778133 110.598734,18.0477162 110.598734,18.0477162 Z" id="Shape"></path>
                                <path d="M151.589873,12.3875221 C151.074262,10.0719881 149.26962,6.98460944 146.949367,5.44092012 C145.402532,4.66907546 143.340084,4.41179391 141.793249,4.92635702 C140.504219,5.44092012 139.21519,5.69820168 138.183966,7.49917255 C136.637131,10.0719881 138.183966,13.1593667 140.246414,13.4166483 C142.051055,13.6739298 143.082278,12.6448036 143.340084,12.1302405 L143.082278,11.6156774 C143.082278,11.6156774 141.793249,12.1302405 141.019831,11.1011143 C140.246414,10.0719881 140.762025,8.78558032 142.051055,8.27101721 C142.824473,8.01373566 143.855696,8.52829876 144.371308,9.30014342 C145.144726,10.3292696 145.660338,12.1302405 146.175949,13.4166483 C147.207173,18.0477162 147.207173,22.1642211 146.433755,24.4797551 C145.918143,26.2807259 144.88692,26.5380075 144.113502,26.7952891 C143.082278,27.0525706 142.051055,26.7952891 141.277637,25.7661628 C140.246414,24.4797551 139.730802,23.1933473 139.472996,21.9069395 L139.472996,21.9069395 C138.699578,19.334124 138.699578,16.5040269 138.699578,14.4457745 C136.379325,13.1593667 135.348101,10.3292696 135.348101,10.3292696 C134.316878,11.6156774 132.25443,15.9894638 134.059072,22.6787842 C134.574684,24.4797551 135.605907,27.0525706 137.410549,28.5962599 C139.21519,30.1399492 141.277637,30.9117939 144.371308,30.3972308 C147.207173,29.6253861 149.26962,28.0816968 150.55865,26.0234444 C152.105485,22.9360658 152.878903,17.7904347 151.589873,12.3875221 L151.589873,12.3875221 Z" id="Shape"></path>
                                <path d="M130.191983,22.1642211 C129.418565,20.1059687 127.613924,17.2758716 125.293671,16.2467454 C123.746835,15.4749007 121.684388,15.4749007 120.137553,15.9894638 C118.848523,16.5040269 117.559494,17.01859 116.786076,18.8195609 C115.497046,21.3923764 117.301688,24.2224735 119.364135,24.2224735 C121.168776,24.2224735 121.942194,23.1933473 122.2,22.6787842 L121.942194,22.1642211 C121.942194,22.1642211 120.653165,22.6787842 120.137553,21.9069395 C119.364135,21.1350949 119.621941,19.8486871 120.91097,19.334124 C121.684388,19.0768425 122.457806,19.334124 123.231224,20.1059687 C124.004641,20.8778133 124.778059,22.6787842 125.293671,23.7079104 C126.840506,27.8244153 127.098312,31.6836386 126.5827,33.9991726 C126.067089,35.5428619 125.293671,36.057425 124.520253,36.3147065 C123.746835,36.5719881 122.457806,36.3147065 121.684388,35.5428619 C120.653165,34.5137357 120.137553,33.2273279 119.621941,31.9409201 L119.621941,31.9409201 C118.848523,29.6253861 118.332911,27.0525706 118.332911,24.9943182 C116.012658,23.965192 114.723629,21.649658 114.723629,21.649658 C113.692405,22.9360658 112.403376,27.0525706 114.465823,32.9700463 C114.981435,34.7710172 116.270464,36.8292696 118.075105,38.1156774 C119.879747,39.4020852 121.942194,39.9166483 124.778059,39.1448036 C127.356118,38.372959 129.160759,36.8292696 130.449789,34.5137357 C131.481013,31.6836386 131.996624,27.0525706 130.191983,22.1642211 L130.191983,22.1642211 Z" id="Shape"></path>
                                <path d="M168.089451,1.83897838 C166.542616,0.809852162 163.706751,0.809852162 160.61308,1.32441527 C158.035021,1.83897838 153.910127,2.09625993 153.910127,2.09625993 L153.910127,3.3826677 C153.910127,3.3826677 155.456962,4.66907546 155.972574,5.69820168 C156.488186,7.49917255 157.261603,19.334124 156.23038,23.1933473 C155.714768,24.9943182 154.425738,26.0234444 154.425738,26.0234444 L154.425738,27.5671337 C154.425738,27.5671337 157.261603,27.0525706 158.550633,26.7952891 C159.581857,26.5380075 161.128692,26.2807259 162.417722,26.2807259 C164.480169,26.0234444 167.058228,24.9943182 168.862869,23.1933473 C171.440928,20.6205318 173.503376,15.4749007 172.472152,9.81470653 C171.95654,6.47004634 170.667511,3.3826677 168.089451,1.83897838 Z M165.769198,21.1350949 C164.737975,22.6787842 163.448945,23.1933473 162.159916,23.4506289 C161.386498,23.4506289 161.128692,23.1933473 161.128692,22.4215026 C161.128692,22.4215026 160.61308,6.72732789 160.870886,5.69820168 C161.128692,4.41179391 161.386498,4.41179391 161.90211,4.15451236 C162.933333,3.8972308 163.706751,4.15451236 164.995781,5.44092012 C166.28481,6.98460944 166.800422,9.04286187 167.316034,11.1011143 C167.831646,15.4749007 167.316034,19.0768425 165.769198,21.1350949 Z" id="Shape"></path>
                                <path d="M182.526582,5.44092012 C183.042194,5.18363857 183.815612,5.18363857 184.331224,5.18363857 C185.104641,5.18363857 185.620253,5.69820168 186.135865,6.21276478 C187.167089,7.241891 187.6827,10.0719881 187.6827,10.0719881 L188.97173,10.3292696 C188.97173,10.3292696 189.487342,5.95548323 189.745148,3.63994925 C188.97173,2.86810459 187.424895,2.35354148 185.620253,2.09625993 C182.784388,1.58169682 180.979747,2.09625993 179.175105,3.3826677 C177.62827,4.41179391 176.339241,6.21276478 176.339241,8.78558032 C176.081435,12.1302405 177.886076,14.4457745 180.464135,16.2467454 C182.526582,17.7904347 183.557806,18.3049978 183.557806,20.3632502 C183.557806,21.3923764 183.042194,22.1642211 182.526582,22.4215026 C182.01097,22.6787842 181.237553,22.9360658 180.206329,22.6787842 C179.175105,22.4215026 178.401688,22.1642211 177.886076,21.3923764 C176.854852,20.1059687 176.081435,17.5331531 176.081435,17.5331531 L174.534599,17.5331531 C174.534599,17.5331531 174.018987,21.9069395 174.018987,24.2224735 C175.050211,25.2515997 177.112658,25.7661628 178.9173,26.0234444 C181.495359,26.2807259 183.557806,26.2807259 185.104641,24.9943182 C186.909283,23.965192 188.198312,21.9069395 188.198312,18.8195609 C188.198312,16.2467454 187.167089,14.1884929 184.331224,12.1302405 C182.01097,10.5865512 180.979747,9.81470653 180.979747,8.01373566 C181.495359,6.72732789 182.01097,5.69820168 182.526582,5.44092012 Z" id="Shape"></path>
                            </g>
                        </g>
                    </g>
                </g>
            </g>
        </g>
    </g>
</svg>